<svg xmlns="http://www.w3.org/2000/svg" viewBox="0 0 64 64" role="img" aria-labelledby="title">
  <title id="title">Rawezh Ali Rashid monogram</title>
  <defs>
    <linearGradient id="energy" x1="8" y1="8" x2="56" y2="56" gradientUnits="userSpaceOnUse">
      <stop stop-color="#f0c486"/>
      <stop offset=".52" stop-color="#d4a56b"/>
      <stop offset="1" stop-color="#68e4ee"/>
    </linearGradient>
  </defs>
  <rect width="64" height="64" rx="18" fill="#07090d"/>
  <circle cx="32" cy="32" r="28" fill="none" stroke="url(#energy)" stroke-width="1.5"/>
  <circle cx="32" cy="32" r="22" fill="none" stroke="#68e4ee" stroke-opacity=".18"/>
  <circle cx="53" cy="22" r="2.3" fill="#68e4ee"/>
  <path d="M18 43V20h10.5c6 0 9.5 3.1 9.5 8 0 3.2-1.6 5.6-4.5 6.9L40 43h-6.6l-5.3-7.1h-4.2V43H18Zm5.9-12.3h4.2c2.6 0 4-1 4-2.8s-1.4-2.7-4-2.7h-4.2v5.5Z" fill="#f4f1ea"/>
  <path d="m42.8 20 8.7 23h-6.2l-1.6-4.7h-8.2l2.2-5.2H42l-2.4-7.2 2.2-5.9h1Z" fill="url(#energy)"/>
</svg>
